name Run_40002_IK.mot
datacolumns 164
datarows 4
range 1.89 1.92
endheader
time	         pelvis_tilt	         pelvis_list	     pelvis_rotation	           pelvis_tx	           pelvis_ty	           pelvis_tz	       hip_flexion_r	     hip_adduction_r	      hip_rotation_r	        knee_angle_r	       ankle_angle_r	       hip_flexion_l	     hip_adduction_l	      hip_rotation_l	        knee_angle_l	       ankle_angle_l	    lumbar_extension	      lumbar_bending	     lumbar_rotation	          arm_flex_r	           arm_add_r	           arm_rot_r	        elbow_flex_r	           pro_sup_r	          arm_flex_l	           arm_add_l	           arm_rot_l	        elbow_flex_l	           pro_sup_l	    subtalar_angle_r	         mtp_angle_r	    subtalar_angle_l	         mtp_angle_l	        wrist_flex_r	         wrist_dev_r	        wrist_flex_l	         wrist_dev_l	             LASI_tx	             LASI_ty	             LASI_tz	             RASI_tx	             RASI_ty	             RASI_tz	             LPSI_tx	             LPSI_ty	             LPSI_tz	             RPSI_tx	             RPSI_ty	             RPSI_tz	             RTH1_tx	             RTH1_ty	             RTH1_tz	             RTH2_tx	             RTH2_ty	             RTH2_tz	             RTH3_tx	             RTH3_ty	             RTH3_tz	             LTH1_tx	             LTH1_ty	             LTH1_tz	             LTH2_tx	             LTH2_ty	             LTH2_tz	             LTH3_tx	             LTH3_ty	             LTH3_tz	             RTB1_tx	             RTB1_ty	             RTB1_tz	             RTB2_tx	             RTB2_ty	             RTB2_tz	             RTB3_tx	             RTB3_ty	             RTB3_tz	             LTB1_tx	             LTB1_ty	             LTB1_tz	             LTB2_tx	             LTB2_ty	             LTB2_tz	             LTB3_tx	             LTB3_ty	             LTB3_tz	             RCAL_tx	             RCAL_ty	             RCAL_tz	             RTOE_tx	             RTOE_ty	             RTOE_tz	             RMT5_tx	             RMT5_ty	             RMT5_tz	             LCAL_tx	             LCAL_ty	             LCAL_tz	             LTOE_tx	             LTOE_ty	             LTOE_tz	             LMT5_tx	             LMT5_ty	             LMT5_tz	             LACR_tx	             LACR_ty	             LACR_tz	             RACR_tx	             RACR_ty	             RACR_tz	             CLAV_tx	             CLAV_ty	             CLAV_tz	               C7_tx	               C7_ty	               C7_tz	             RUA1_tx	             RUA1_ty	             RUA1_tz	             RUA2_tx	             RUA2_ty	             RUA2_tz	             RUA3_tx	             RUA3_ty	             RUA3_tz	             RLEL_tx	             RLEL_ty	             RLEL_tz	             RMEL_tx	             RMEL_ty	             RMEL_tz	             LUA1_tx	             LUA1_ty	             LUA1_tz	             LUA2_tx	             LUA2_ty	             LUA2_tz	             LUA3_tx	             LUA3_ty	             LUA3_tz	             LLEL_tx	             LLEL_ty	             LLEL_tz	             LMEL_tx	             LMEL_ty	             LMEL_tz	      RFAsuperior_tx	      RFAsuperior_ty	      RFAsuperior_tz	        RFAradius_tx	        RFAradius_ty	        RFAradius_tz	          RFAulna_tx	          RFAulna_ty	          RFAulna_tz	      LFAsuperior_tx	      LFAsuperior_ty	      LFAsuperior_tz	        LFAradius_tx	        LFAradius_ty	        LFAradius_tz	          LFAulna_tx	          LFAulna_ty	          LFAulna_tz	
1.89	        -12.92514944	          0.54242900	          8.54056470	          0.97231231	          1.01747339	         -0.35629720	         -3.48232547	          4.43337333	         -3.73403286	        -61.45222055	        -20.84154708	         36.48750421	         10.74073325	          4.16307320	        -10.03586202	          2.29107537	         -0.25235376	         -1.22380027	          6.17941255	        -20.01215987	        -21.36438523	         -4.54251192	        120.53282796	        115.38552126	        -48.81715033	        -12.83056724	        -15.68592949	        123.57310908	        104.85773412	          0.00000000	          0.00000000	          0.00000000	          0.00000000	          0.00000000	          0.00000000	          0.00000000	          0.00000000	          0.97098487	          1.06383897	         -0.47804877	          1.00577041	          1.04369156	         -0.23685100	          0.82125660	          1.12029461	         -0.38928916	          0.84022175	          1.11261513	         -0.27659389	          0.91897407	          0.92735212	         -0.17877651	          0.82034834	          0.80139409	         -0.19276890	          0.80753867	          0.64745323	         -0.21862413	          0.92834930	          0.93895214	         -0.53100944	          0.91833046	          0.77419518	         -0.47393801	          1.01536521	          0.66631484	         -0.47354028	          0.64827008	          0.45633929	         -0.28718811	          0.58693105	          0.51645577	         -0.21201952	          0.45708548	          0.43218992	         -0.27878156	          1.14735409	          0.47798292	         -0.40658269	          1.08678730	          0.34872816	         -0.44181845	          1.17359317	          0.26373241	         -0.38100291	          0.33248896	          0.51819540	         -0.23783767	          0.29323596	          0.30383887	         -0.34347685	          0.26183454	          0.31719329	         -0.24391294	          1.09485718	          0.09650238	         -0.33498759	          1.31919731	          0.17204643	         -0.33697729	          1.29041353	          0.08677918	         -0.40597576	          0.94513400	          1.55284008	         -0.49992769	          1.03259627	          1.52133269	         -0.19799539	          1.05252698	          1.49055985	         -0.33472969	          0.92728057	          1.56328042	         -0.33610705	          0.94918446	          1.42959602	         -0.10435360	          0.99878180	          1.36919316	         -0.09450654	          0.95017465	          1.29447591	         -0.03390029	          0.92961553	          1.23226778	         -0.00154147	          0.89753425	          1.20903596	         -0.08378872	          0.81433423	          1.50801084	         -0.52145335	          0.80381620	          1.43045876	         -0.55754201	          0.70784224	          1.40341428	         -0.55212583	          0.66243636	          1.34615662	         -0.56339041	          0.67234408	          1.31809795	         -0.47718304	          1.02132672	          1.19896322	         -0.05242798	          1.11912803	          1.21109829	         -0.20376542	          1.13439983	          1.15940474	         -0.16031063	          0.71184529	          1.28263098	         -0.58222159	          0.89497171	          1.23558353	         -0.55226585	          0.86189621	          1.18100576	         -0.58562338	
1.9	        -12.73298091	          0.55685224	          8.53716570	          0.97245129	          1.01083651	         -0.35615357	         -1.44187150	          3.72754503	         -4.52801829	        -67.81920429	        -19.94292778	         35.88258526	         10.60891604	          2.65980217	        -11.35639121	          0.98106413	         -0.38966384	         -1.40516213	          5.64276458	        -21.08759443	        -21.15002992	         -5.12769143	        117.51803543	        115.89444390	        -47.54013915	        -12.73239287	        -15.47363410	        123.12306520	        104.69040895	          0.00000000	          0.00000000	          0.00000000	          0.00000000	          0.00000000	          0.00000000	          0.00000000	          0.00000000	          0.97122776	          1.05664956	         -0.47792043	          1.00575709	          1.03818309	         -0.23676834	          0.82143710	          1.11321551	         -0.38910253	          0.84029210	          1.10561020	         -0.27635560	          0.92105469	          0.92063430	         -0.17850365	          0.82497148	          0.79229596	         -0.19298582	          0.81793595	          0.63784986	         -0.21680428	          0.92692705	          0.93089408	         -0.53078143	          0.91596009	          0.76669923	         -0.47212781	          1.01235493	          0.65842999	         -0.47210306	          0.66024347	          0.45294047	         -0.28400482	          0.60310810	          0.51843046	         -0.21076043	          0.46783628	          0.44228513	         -0.27518852	          1.14023789	          0.46666742	         -0.40681549	          1.07575644	          0.33881555	         -0.44033657	          1.16120329	          0.25179463	         -0.38066479	          0.34908830	          0.53760417	         -0.23637587	          0.29681744	          0.32274111	         -0.33554208	          0.26650859	          0.34112944	         -0.23657807	          1.07743217	          0.09172266	         -0.33111544	          1.30464402	          0.15319972	         -0.33910677	          1.27308659	          0.06788170	         -0.40704061	          0.94517183	          1.54451432	         -0.50235173	          1.03147766	          1.51446858	         -0.19883907	          1.05233260	          1.48374515	         -0.33581515	          0.92701887	          1.55686708	         -0.33841349	          0.94490781	          1.42472238	         -0.10589371	          0.99343579	          1.36407197	         -0.09365546	          0.94305456	          1.29025067	         -0.03372336	          0.92083121	          1.22919788	         -0.00077360	          0.88998430	          1.20503668	         -0.08273883	          0.81455385	          1.49745494	         -0.52538836	          0.80616203	          1.41886604	         -0.56032057	          0.71092579	          1.38930526	         -0.55576697	          0.66666311	          1.33149053	         -0.56688838	          0.67646031	          1.30415484	         -0.48045024	          1.01206888	          1.18966540	         -0.04836456	          1.11496619	          1.18995901	         -0.19765405	          1.12577847	          1.13989583	         -0.15101440	          0.71729797	          1.26874998	         -0.58486556	          0.90113833	          1.22515386	         -0.55357344	          0.86914338	          1.16990210	         -0.58685481	
1.91	        -12.65690227	          0.60469035	          8.36596929	          0.97216815	          1.00345907	         -0.35567657	          0.81701055	          2.91404605	         -5.00610079	        -73.96566084	        -18.06406824	         35.70699167	         10.34076943	          0.54215640	        -14.00806037	         -0.36845347	         -0.40778036	         -1.65415938	          5.15661060	        -22.07012058	        -20.94905481	         -5.62730602	        114.19528820	        116.61947769	        -46.09899918	        -12.70100626	        -15.18424436	        122.42520108	        104.57904740	          0.00000000	          0.00000000	          0.00000000	          0.00000000	          0.00000000	          0.00000000	          0.00000000	          0.00000000	          0.97144250	          1.04859413	         -0.47764532	          1.00544214	          1.03210699	         -0.23591292	          0.82166733	          1.10520633	         -0.38914333	          0.84002867	          1.09797959	         -0.27633101	          0.92196948	          0.91351683	         -0.17775994	          0.82889213	          0.78316396	         -0.19429061	          0.82845406	          0.62787118	         -0.21459427	          0.92574470	          0.92214466	         -0.52963164	          0.91357364	          0.75851883	         -0.47004668	          1.00939838	          0.64994474	         -0.47116750	          0.67412232	          0.44888061	         -0.28041992	          0.62072479	          0.51953990	         -0.20876585	          0.48122253	          0.45083426	         -0.27140187	          1.13295058	          0.45378698	         -0.40841880	          1.06209380	          0.32840716	         -0.43846972	          1.14528860	          0.23840064	         -0.38023170	          0.36677665	          0.55474745	         -0.23622502	          0.30612064	          0.33812523	         -0.32688081	          0.27686193	          0.36176239	         -0.22876355	          1.05374826	          0.09024033	         -0.32660489	          1.28427615	          0.12907542	         -0.33969851	          1.24588598	          0.04958196	         -0.40952828	          0.94522559	          1.53521419	         -0.50511939	          1.02968106	          1.50697982	         -0.19955101	          1.05194676	          1.47614344	         -0.33689846	          0.92639082	          1.54919127	         -0.34086417	          0.94007124	          1.41894470	         -0.10744827	          0.98753884	          1.35772661	         -0.09324547	          0.93523813	          1.28522025	         -0.03353760	          0.91143027	          1.22564198	         -0.00000773	          0.88215944	          1.20028273	         -0.08188132	          0.81483497	          1.48559283	         -0.52963890	          0.80901165	          1.40588833	         -0.56366243	          0.71456447	          1.37371632	         -0.56012779	          0.67159408	          1.31533462	         -0.57127164	          0.68098635	          1.28890913	         -0.48444928	          1.00191607	          1.17995563	         -0.04374144	          1.10889881	          1.16723866	         -0.19037770	          1.11541430	          1.11922376	         -0.14060746	          0.72348933	          1.25321756	         -0.58832648	          0.90780941	          1.21306729	         -0.55491833	          0.87702323	          1.15713273	         -0.58824743	
1.92	        -12.78983605	          0.83988779	          8.20930889	          0.97116830	          0.99538276	         -0.35523141	          3.41499801	          1.79619806	         -5.36561880	        -79.94494310	        -15.32432796	         36.26236206	         10.30878266	         -1.56118228	        -18.30422906	         -0.36252129	         -0.27849490	         -2.16553992	          4.51442193	        -22.90005188	        -20.72593893	         -6.05207620	        110.55356400	        117.48035131	        -44.52429646	        -12.72359332	        -14.85633994	        121.48631477	        104.48544493	          0.00000000	          0.00000000	          0.00000000	          0.00000000	          0.00000000	          0.00000000	          0.00000000	          0.00000000	          0.97141670	          1.04035776	         -0.47742217	          1.00504658	          1.02504766	         -0.23445197	          0.82163751	          1.09692693	         -0.38922375	          0.83917100	          1.08982083	         -0.27628110	          0.92188194	          0.90574752	         -0.17728811	          0.83280080	          0.77364833	         -0.19616634	          0.83922483	          0.61747284	         -0.21200670	          0.92452236	          0.91322280	         -0.52736674	          0.91115058	          0.75012524	         -0.46880818	          1.00735591	          0.64171074	         -0.47141458	          0.68962118	          0.44399059	         -0.27623871	          0.63959633	          0.52006711	         -0.20625449	          0.49700852	          0.45747755	         -0.26735253	          1.12675371	          0.44161025	         -0.40934898	          1.04825296	          0.31982471	         -0.43570660	          1.12665376	          0.22617730	         -0.37707825	          0.38527687	          0.56940104	         -0.23703985	          0.32073631	          0.34992142	         -0.31775914	          0.29205352	          0.37873046	         -0.22079562	          1.02436447	          0.09142457	         -0.32060287	          1.25785611	          0.10521334	         -0.33669089	          1.21111406	          0.03736281	         -0.41167288	          0.94553858	          1.52500393	         -0.50820215	          1.02728747	          1.49915432	         -0.20010926	          1.05145494	          1.46788286	         -0.33778180	          0.92538858	          1.54028706	         -0.34355370	          0.93468367	          1.41239896	         -0.10924827	          0.98121450	          1.35044889	         -0.09329630	          0.92691831	          1.27954982	         -0.03368621	          0.90146642	          1.22174607	          0.00052234	          0.87399383	          1.19513449	         -0.08147816	          0.81543172	          1.47241405	         -0.53426942	          0.81248833	          1.39164811	         -0.56751035	          0.71886137	          1.35690603	         -0.56513058	          0.67735948	          1.29793661	         -0.57641435	          0.68597965	          1.27267598	         -0.48900158	          0.99091114	          1.16993854	         -0.03855505	          1.10094868	          1.14324224	         -0.18174613	          1.10323156	          1.09781650	         -0.12913464	          0.73054091	          1.23631958	         -0.59248163	          0.91499783	          1.19931665	         -0.55624218	          0.88552200	          1.14269477	         -0.58965461	
